<svg xmlns="http://www.w3.org/2000/svg" viewBox="0 0 32 32" fill="none">
  <!-- Background -->
  <rect width="32" height="32" rx="6" fill="#FFF7ED"/>
  
  <!-- Simple fire flame icon -->
  <path d="M16 6C16 6 11 10 11 16C11 19.3137 13.6863 22 17 22C20.3137 22 23 19.3137 23 16C23 13 21 11 21 11C21 11 20 13 20 14.5C20 15.8807 18.8807 17 17.5 17C16.1193 17 15 15.8807 15 14.5C15 12 16 6 16 6Z" fill="url(#gradient1)"/>
  
  <!-- Inner flame -->
  <path d="M17 11C17 11 15.5 12.5 15.5 14.5C15.5 15.6046 16.3954 16.5 17.5 16.5C18.6046 16.5 19.5 15.6046 19.5 14.5C19.5 13 18.5 12 18.5 12C18.5 12 18 13 18 13.75C18 14.1642 17.6642 14.5 17.25 14.5C16.8358 14.5 16.5 14.1642 16.5 13.75C16.5 12.5 17 11 17 11Z" fill="url(#gradient2)"/>
  
  <defs>
    <linearGradient id="gradient1" x1="16" y1="6" x2="16" y2="22" gradientUnits="userSpaceOnUse">
      <stop stop-color="#FB923C"/>
      <stop offset="1" stop-color="#EA580C"/>
    </linearGradient>
    <linearGradient id="gradient2" x1="17" y1="11" x2="17" y2="16.5" gradientUnits="userSpaceOnUse">
      <stop stop-color="#FED7AA"/>
      <stop offset="1" stop-color="#FB923C"/>
    </linearGradient>
  </defs>
</svg>